<svg width="773" height="37" viewBox="0 0 773 37" fill="none" xmlns="http://www.w3.org/2000/svg">
<path d="M27.65 26.65H8.15L3.95 36H0.1L16.1 0.999998H19.75L35.75 36H31.85L27.65 26.65ZM26.3 23.65L17.9 4.85L9.5 23.65H26.3ZM60.0398 0.999998H63.7398V32.8H83.3398V36H60.0398V0.999998ZM132.733 32.8V36H107.983V0.999998H131.983V4.2H111.683V16.65H129.783V19.8H111.683V32.8H132.733ZM181.441 36L170.141 20.6L158.891 36H154.641L167.941 18L155.491 0.999998H159.741L170.291 15.3L180.791 0.999998H184.791L172.391 17.9L185.741 36H181.441ZM209.583 0.999998H213.283V36H209.583V0.999998ZM252.821 36.3C250.221 36.3 247.721 35.8833 245.321 35.05C242.954 34.2167 241.121 33.1167 239.821 31.75L241.271 28.9C242.537 30.1667 244.221 31.2 246.321 32C248.421 32.7667 250.587 33.15 252.821 33.15C255.954 33.15 258.304 32.5833 259.871 31.45C261.437 30.2833 262.221 28.7833 262.221 26.95C262.221 25.55 261.787 24.4333 260.921 23.6C260.087 22.7667 259.054 22.1333 257.821 21.7C256.587 21.2333 254.871 20.7333 252.671 20.2C250.037 19.5333 247.937 18.9 246.371 18.3C244.804 17.6667 243.454 16.7167 242.321 15.45C241.221 14.1833 240.671 12.4667 240.671 10.3C240.671 8.53333 241.137 6.93333 242.071 5.5C243.004 4.03333 244.437 2.86667 246.371 2C248.304 1.13333 250.704 0.699998 253.571 0.699998C255.571 0.699998 257.521 0.983332 259.421 1.55C261.354 2.08333 263.021 2.83333 264.421 3.8L263.171 6.75C261.704 5.78333 260.137 5.06667 258.471 4.6C256.804 4.1 255.171 3.85 253.571 3.85C250.504 3.85 248.187 4.45 246.621 5.65C245.087 6.81666 244.321 8.33333 244.321 10.2C244.321 11.6 244.737 12.7333 245.571 13.6C246.437 14.4333 247.504 15.0833 248.771 15.55C250.071 15.9833 251.804 16.4667 253.971 17C256.537 17.6333 258.604 18.2667 260.171 18.9C261.771 19.5 263.121 20.4333 264.221 21.7C265.321 22.9333 265.871 24.6167 265.871 26.75C265.871 28.5167 265.387 30.1333 264.421 31.6C263.487 33.0333 262.037 34.1833 260.071 35.05C258.104 35.8833 255.687 36.3 252.821 36.3ZM339.218 36.3C335.752 36.3 332.618 35.5333 329.818 34C327.052 32.4667 324.868 30.35 323.268 27.65C321.702 24.9167 320.918 21.8667 320.918 18.5C320.918 15.1333 321.702 12.1 323.268 9.4C324.868 6.66667 327.068 4.53333 329.868 3C332.668 1.46667 335.802 0.699998 339.268 0.699998C341.868 0.699998 344.268 1.13333 346.468 2C348.668 2.86667 350.535 4.13333 352.068 5.8L349.718 8.15C346.985 5.38333 343.535 4 339.368 4C336.602 4 334.085 4.63333 331.818 5.9C329.552 7.16667 327.768 8.9 326.468 11.1C325.202 13.3 324.568 15.7667 324.568 18.5C324.568 21.2333 325.202 23.7 326.468 25.9C327.768 28.1 329.552 29.8333 331.818 31.1C334.085 32.3667 336.602 33 339.368 33C343.568 33 347.018 31.6 349.718 28.8L352.068 31.15C350.535 32.8167 348.652 34.1 346.418 35C344.218 35.8667 341.818 36.3 339.218 36.3ZM393.023 36.3C389.557 36.3 386.407 35.5333 383.573 34C380.773 32.4333 378.573 30.3 376.973 27.6C375.407 24.9 374.623 21.8667 374.623 18.5C374.623 15.1333 375.407 12.1 376.973 9.4C378.573 6.7 380.773 4.58333 383.573 3.05C386.407 1.48333 389.557 0.699998 393.023 0.699998C396.49 0.699998 399.607 1.46667 402.373 3C405.173 4.53333 407.373 6.66667 408.973 9.4C410.573 12.1 411.373 15.1333 411.373 18.5C411.373 21.8667 410.573 24.9167 408.973 27.65C407.373 30.35 405.173 32.4667 402.373 34C399.607 35.5333 396.49 36.3 393.023 36.3ZM393.023 33C395.79 33 398.29 32.3833 400.523 31.15C402.757 29.8833 404.507 28.15 405.773 25.95C407.04 23.7167 407.673 21.2333 407.673 18.5C407.673 15.7667 407.04 13.3 405.773 11.1C404.507 8.86667 402.757 7.13333 400.523 5.9C398.29 4.63333 395.79 4 393.023 4C390.257 4 387.74 4.63333 385.473 5.9C383.24 7.13333 381.473 8.86667 380.173 11.1C378.907 13.3 378.273 15.7667 378.273 18.5C378.273 21.2333 378.907 23.7167 380.173 25.95C381.473 28.15 383.24 29.8833 385.473 31.15C387.74 32.3833 390.257 33 393.023 33ZM447.817 36.3C445.217 36.3 442.717 35.8833 440.317 35.05C437.95 34.2167 436.117 33.1167 434.817 31.75L436.267 28.9C437.533 30.1667 439.217 31.2 441.317 32C443.417 32.7667 445.583 33.15 447.817 33.15C450.95 33.15 453.3 32.5833 454.867 31.45C456.433 30.2833 457.217 28.7833 457.217 26.95C457.217 25.55 456.783 24.4333 455.917 23.6C455.083 22.7667 454.05 22.1333 452.817 21.7C451.583 21.2333 449.867 20.7333 447.667 20.2C445.033 19.5333 442.933 18.9 441.367 18.3C439.8 17.6667 438.45 16.7167 437.317 15.45C436.217 14.1833 435.667 12.4667 435.667 10.3C435.667 8.53333 436.133 6.93333 437.067 5.5C438 4.03333 439.433 2.86667 441.367 2C443.3 1.13333 445.7 0.699998 448.567 0.699998C450.567 0.699998 452.517 0.983332 454.417 1.55C456.35 2.08333 458.017 2.83333 459.417 3.8L458.167 6.75C456.7 5.78333 455.133 5.06667 453.467 4.6C451.8 4.1 450.167 3.85 448.567 3.85C445.5 3.85 443.183 4.45 441.617 5.65C440.083 6.81666 439.317 8.33333 439.317 10.2C439.317 11.6 439.733 12.7333 440.567 13.6C441.433 14.4333 442.5 15.0833 443.767 15.55C445.067 15.9833 446.8 16.4667 448.967 17C451.533 17.6333 453.6 18.2667 455.167 18.9C456.767 19.5 458.117 20.4333 459.217 21.7C460.317 22.9333 460.867 24.6167 460.867 26.75C460.867 28.5167 460.383 30.1333 459.417 31.6C458.483 33.0333 457.033 34.1833 455.067 35.05C453.1 35.8833 450.683 36.3 447.817 36.3ZM512.179 32.8V36H487.429V0.999998H511.429V4.2H491.129V16.65H509.229V19.8H491.129V32.8H512.179ZM568.626 0.999998V36H565.576L543.076 7.6V36H539.376V0.999998H542.426L564.976 29.4V0.999998H568.626ZM605.35 4.2H593.05V0.999998H621.35V4.2H609.05V36H605.35V4.2ZM645.761 0.999998H649.461V36H645.761V0.999998ZM708.598 0.999998V36H705.548L683.048 7.6V36H679.348V0.999998H682.398L704.948 29.4V0.999998H708.598ZM753.822 36.3C750.356 36.3 747.206 35.5333 744.372 34C741.572 32.4333 739.372 30.3 737.772 27.6C736.206 24.9 735.422 21.8667 735.422 18.5C735.422 15.1333 736.206 12.1 737.772 9.4C739.372 6.7 741.572 4.58333 744.372 3.05C747.206 1.48333 750.356 0.699998 753.822 0.699998C757.289 0.699998 760.406 1.46667 763.172 3C765.972 4.53333 768.172 6.66667 769.772 9.4C771.372 12.1 772.172 15.1333 772.172 18.5C772.172 21.8667 771.372 24.9167 769.772 27.65C768.172 30.35 765.972 32.4667 763.172 34C760.406 35.5333 757.289 36.3 753.822 36.3ZM753.822 33C756.589 33 759.089 32.3833 761.322 31.15C763.556 29.8833 765.306 28.15 766.572 25.95C767.839 23.7167 768.472 21.2333 768.472 18.5C768.472 15.7667 767.839 13.3 766.572 11.1C765.306 8.86667 763.556 7.13333 761.322 5.9C759.089 4.63333 756.589 4 753.822 4C751.056 4 748.539 4.63333 746.272 5.9C744.039 7.13333 742.272 8.86667 740.972 11.1C739.706 13.3 739.072 15.7667 739.072 18.5C739.072 21.2333 739.706 23.7167 740.972 25.95C742.272 28.15 744.039 29.8833 746.272 31.15C748.539 32.3833 751.056 33 753.822 33Z" fill="black"/>
</svg>
